<svg xmlns="http://www.w3.org/2000/svg" width="160" height="51.621" viewBox="0 0 160 51.621"><path d="M13.877 3.085v6.166h7.197v7.453h-7.197v8.738c0 1.714.772 2.572 2.313 2.572.548 0 1.147-.044 1.8-.13a32.23 32.23 0 0 0 1.542-.23l.513-.155 1.029 7.711c-2.057.854-4.542 1.283-7.454 1.283-2.776 0-4.968-.744-6.579-2.234-1.61-1.49-2.417-3.57-2.417-6.244V16.706H0V9.252h4.625V3.085h9.252zM72.985 23.13V9.25h9.251v26.73h-8.225l-.41-3.598c-1.92 2.74-4.661 4.112-8.225 4.112-2.913 0-5.286-.934-7.119-2.803-1.833-1.866-2.749-4.394-2.749-7.579V9.251h9.25v13.88c0 1.61.362 2.826 1.08 3.649.72.822 1.696 1.232 2.93 1.232 1.268 0 2.287-.412 3.059-1.232.773-.824 1.158-2.04 1.158-3.65zM99.712 3.085v6.166h7.194v7.453h-7.194v8.738c0 1.714.768 2.572 2.312 2.572.548 0 1.147-.044 1.8-.13a32.05 32.05 0 0 0 1.542-.23l.513-.155 1.027 7.711c-2.053.854-4.54 1.283-7.45 1.283-2.776 0-4.97-.744-6.579-2.234-1.613-1.49-2.417-3.57-2.417-6.244V16.706h-4.625V9.252h4.625V3.085h9.252zm13.877 29.501c-2.743-2.601-4.112-5.877-4.112-9.816 0-3.94 1.422-7.263 4.266-9.97 2.845-2.707 6.357-4.063 10.537-4.063 4.181 0 7.641 1.303 10.382 3.907 2.74 2.603 4.112 5.876 4.112 9.817 0 3.94-1.422 7.266-4.266 9.97-2.844 2.71-6.357 4.062-10.535 4.062-4.183 0-7.644-1.303-10.384-3.907zm6.682-13.8c-1.029 1.046-1.542 2.321-1.542 3.83 0 1.507.513 2.784 1.542 3.829 1.027 1.046 2.313 1.567 3.854 1.567 1.543 0 2.826-.523 3.853-1.567 1.03-1.046 1.545-2.322 1.545-3.83 0-1.507-.513-2.784-1.545-3.829-1.025-1.045-2.31-1.568-3.853-1.568-1.54 0-2.827.524-3.854 1.568zm21.586 17.193V9.25h8.223l.463 4.78c1.882-3.528 5.037-5.294 9.457-5.294l-.155 9.51h-1.953c-2.23 0-3.906.557-5.037 1.67-1.13 1.113-1.713 2.92-1.75 5.423V35.98h-9.248z" fill="#005A88"/><path fill="#FBAE17" d="M42.66 35.979V22.1c0-1.61-.36-2.827-1.08-3.65-.719-.821-1.696-1.233-2.93-1.233-1.232 0-2.236.395-3.007 1.183-.77.789-1.174 1.936-1.208 3.444v14.134h-9.25V0h9.251v12.337c1.918-2.399 4.455-3.6 7.607-3.6 2.844 0 5.199.943 7.067 2.827 1.867 1.885 2.8 4.403 2.8 7.556v16.86l-9.25-.001zm-17.475 8.188h26.727v7.454H25.185z"/></svg>